<svg width="39" height="66" viewBox="0 0 39 66" fill="none" xmlns="http://www.w3.org/2000/svg">
<mask id="mask0" mask-type="alpha" maskUnits="userSpaceOnUse" x="1" y="1" width="38" height="63">
<path fill-rule="evenodd" clip-rule="evenodd" d="M30.9918 2.46261L2.90042 29.4325C1.3178 30.9497 1.3178 33.4825 2.90042 35.0059L30.9918 61.9696C32.7146 63.6238 35.4344 63.6238 37.1572 61.9696C38.9797 60.2187 38.9797 57.3027 37.1572 55.5488L13.6298 32.9622C13.203 32.5541 13.203 31.8781 13.6298 31.47L37.1572 8.88341C38.9797 7.13257 38.9797 4.21657 37.1572 2.46261C36.2942 1.64015 35.1851 1.2258 34.0761 1.2258C32.9639 1.2258 31.8548 1.64015 30.9918 2.46261Z" fill="white"/>
</mask>
<g mask="url(#mask0)">
<path fill-rule="evenodd" clip-rule="evenodd" d="M30.9918 2.46261L2.90042 29.4325C1.3178 30.9497 1.3178 33.4825 2.90042 35.0059L30.9918 61.9696C32.7146 63.6238 35.4344 63.6238 37.1572 61.9696C38.9797 60.2187 38.9797 57.3027 37.1572 55.5488L13.6298 32.9622C13.203 32.5541 13.203 31.8781 13.6298 31.47L37.1572 8.88341C38.9797 7.13257 38.9797 4.21657 37.1572 2.46261C36.2942 1.64015 35.1851 1.2258 34.0761 1.2258C32.9639 1.2258 31.8548 1.64015 30.9918 2.46261Z" fill="white"/>
</g>
</svg>
